<mxfile host="app.diagrams.net" modified="2023-08-07T00:53:53.363Z" agent="Mozilla/5.0 (X11; Ubuntu; Linux x86_64; rv:109.0) Gecko/20100101 Firefox/116.0" etag="bi4OwyUJ9ONbdUkQpJff" version="21.6.6" type="github">
  <diagram name="PÃ¡gina-1" id="z-KcZ3VixuFzE4qX6nMh">
    <mxGraphModel dx="874" dy="454" grid="1" gridSize="10" guides="1" tooltips="1" connect="1" arrows="1" fold="1" page="1" pageScale="1" pageWidth="827" pageHeight="1169" background="#ffffff" math="0" shadow="0">
      <root>
        <mxCell id="0" />
        <mxCell id="1" parent="0" />
      </root>
    </mxGraphModel>
  </diagram>
</mxfile>
